<svg role="img" viewBox="0 0 24 24" xmlns="http://www.w3.org/2000/svg">
  <title>LinkedIn</title>
  <path d="M20.447 20.452H16.9v-5.569c0-1.328-.027-3.037-1.852-3.037-1.853 0-2.136 1.446-2.136 2.939v5.667h-3.55V9h3.414v1.561h.049c.477-.9 1.637-1.85 3.372-1.85 3.605 0 4.27 2.372 4.27 5.457v6.284zM5.337 7.433a2.062 2.062 0 1 1 0-4.125 2.062 2.062 0 0 1 0 4.125zM7.12 20.452H3.553V9h3.568v11.452zM22.225 0H1.771C.792 0 0 .774 0 1.727v20.545C0 23.226.792 24 1.771 24h20.451C23.206 24 24 23.226 24 22.273V1.727C24 .774 23.206 0 22.225 0z"/>
</svg>
